<svg data-v-423bf9ae="" xmlns="http://www.w3.org/2000/svg" viewBox="0 0 420.9523391435308 180" class="iconAbove"><!----><!----><!----><g data-v-423bf9ae="" id="9f36c397-65fd-49ef-bee8-17f750532256" fill="black" transform="matrix(4.761904617736313,0,0,4.761904617736313,-0.5714274895350684,104.82807421233737)"><path d="M9.21 12.67L7.10 12.67L4.68 8.84L2.26 12.67L0.12 12.67L3.46 7.61L0.40 3.04L2.54 3.04L4.68 6.45L6.82 3.04L8.93 3.04L6.01 7.61L9.21 12.67ZM10.21 5.28L12.13 5.28L12.13 9.43L12.13 9.43Q12.13 11.38 13.44 11.38L13.44 11.38L13.44 11.38Q14.14 11.38 14.56 10.78L14.56 10.78L14.56 10.78Q14.99 10.18 14.99 9.24L14.99 9.24L14.99 5.28L16.91 5.28L16.91 11.02L16.91 11.02Q16.91 11.96 16.97 12.67L16.97 12.67L15.13 12.67L15.13 12.67Q15.05 11.69 15.05 11.20L15.05 11.20L15.02 11.20L15.02 11.20Q14.64 12.04 14.04 12.43L14.04 12.43L14.04 12.43Q13.45 12.81 12.64 12.81L12.64 12.81L12.64 12.81Q11.46 12.81 10.83 12.09L10.83 12.09L10.83 12.09Q10.21 11.37 10.21 9.97L10.21 9.97L10.21 5.28ZM19.82 15.58L19.82 15.58L19.82 15.58Q19.13 15.58 18.61 15.49L18.61 15.49L18.61 14.12L18.61 14.12Q18.98 14.18 19.28 14.18L19.28 14.18L19.28 14.18Q19.69 14.18 19.96 14.05L19.96 14.05L19.96 14.05Q20.23 13.92 20.44 13.62L20.44 13.62L20.44 13.62Q20.66 13.32 20.92 12.60L20.92 12.60L18.00 5.28L20.03 5.28L21.19 8.74L21.19 8.74Q21.46 9.49 21.88 11.03L21.88 11.03L22.05 10.38L22.50 8.77L23.59 5.28L25.60 5.28L22.67 13.06L22.67 13.06Q22.09 14.49 21.45 15.03L21.45 15.03L21.45 15.03Q20.82 15.58 19.82 15.58ZM29.68 12.81L29.68 12.81L29.68 12.81Q28.01 12.81 27.12 11.82L27.12 11.82L27.12 11.82Q26.22 10.83 26.22 8.94L26.22 8.94L26.22 8.94Q26.22 7.11 27.13 6.13L27.13 6.13L27.13 6.13Q28.04 5.14 29.71 5.14L29.71 5.14L29.71 5.14Q31.30 5.14 32.14 6.20L32.14 6.20L32.14 6.20Q32.98 7.25 32.98 9.29L32.98 9.29L32.98 9.34L28.24 9.34L28.24 9.34Q28.24 10.42 28.64 10.98L28.64 10.98L28.64 10.98Q29.04 11.53 29.78 11.53L29.78 11.53L29.78 11.53Q30.80 11.53 31.06 10.64L31.06 10.64L32.87 10.80L32.87 10.80Q32.09 12.81 29.68 12.81ZM29.68 6.35L29.68 6.35L29.68 6.35Q29.00 6.35 28.64 6.82L28.64 6.82L28.64 6.82Q28.27 7.29 28.25 8.14L28.25 8.14L31.12 8.14L31.12 8.14Q31.07 7.25 30.69 6.80L30.69 6.80L30.69 6.80Q30.32 6.35 29.68 6.35ZM41.15 12.67L39.23 12.67L39.23 8.52L39.23 8.52Q39.23 6.58 37.91 6.58L37.91 6.58L37.91 6.58Q37.21 6.58 36.79 7.17L36.79 7.17L36.79 7.17Q36.36 7.77 36.36 8.71L36.36 8.71L36.36 12.67L34.44 12.67L34.44 6.93L34.44 6.93Q34.44 6.34 34.42 5.96L34.42 5.96L34.42 5.96Q34.41 5.58 34.38 5.28L34.38 5.28L36.22 5.28L36.22 5.28Q36.24 5.41 36.27 5.97L36.27 5.97L36.27 5.97Q36.31 6.54 36.31 6.75L36.31 6.75L36.33 6.75L36.33 6.75Q36.72 5.90 37.31 5.52L37.31 5.52L37.31 5.52Q37.90 5.13 38.71 5.13L38.71 5.13L38.71 5.13Q39.89 5.13 40.52 5.86L40.52 5.86L40.52 5.86Q41.15 6.58 41.15 7.98L41.15 7.98L41.15 12.67ZM55.07 12.67L53.05 12.67L53.05 8.54L48.86 8.54L48.86 12.67L46.84 12.67L46.84 3.04L48.86 3.04L48.86 6.88L53.05 6.88L53.05 3.04L55.07 3.04L55.07 12.67ZM64.02 8.97L64.02 8.97L64.02 8.97Q64.02 10.77 63.02 11.79L63.02 11.79L63.02 11.79Q62.02 12.81 60.26 12.81L60.26 12.81L60.26 12.81Q58.53 12.81 57.54 11.79L57.54 11.79L57.54 11.79Q56.56 10.76 56.56 8.97L56.56 8.97L56.56 8.97Q56.56 7.18 57.54 6.16L57.54 6.16L57.54 6.16Q58.53 5.14 60.30 5.14L60.30 5.14L60.30 5.14Q62.11 5.14 63.06 6.13L63.06 6.13L63.06 6.13Q64.02 7.12 64.02 8.97ZM62.01 8.97L62.01 8.97L62.01 8.97Q62.01 7.65 61.58 7.05L61.58 7.05L61.58 7.05Q61.15 6.46 60.33 6.46L60.33 6.46L60.33 6.46Q58.58 6.46 58.58 8.97L58.58 8.97L58.58 8.97Q58.58 10.21 59.00 10.85L59.00 10.85L59.00 10.85Q59.43 11.50 60.24 11.50L60.24 11.50L60.24 11.50Q62.01 11.50 62.01 8.97ZM67.25 12.81L67.25 12.81L67.25 12.81Q66.18 12.81 65.58 12.23L65.58 12.23L65.58 12.23Q64.98 11.64 64.98 10.58L64.98 10.58L64.98 10.58Q64.98 9.43 65.72 8.83L65.72 8.83L65.72 8.83Q66.47 8.23 67.89 8.22L67.89 8.22L69.49 8.19L69.49 7.81L69.49 7.81Q69.49 7.09 69.23 6.74L69.23 6.74L69.23 6.74Q68.98 6.38 68.41 6.38L68.41 6.38L68.41 6.38Q67.87 6.38 67.62 6.63L67.62 6.63L67.62 6.63Q67.38 6.87 67.31 7.43L67.31 7.43L65.31 7.33L65.31 7.33Q65.50 6.25 66.30 5.70L66.30 5.70L66.30 5.70Q67.10 5.14 68.49 5.14L68.49 5.14L68.49 5.14Q69.89 5.14 70.65 5.83L70.65 5.83L70.65 5.83Q71.41 6.52 71.41 7.79L71.41 7.79L71.41 10.49L71.41 10.49Q71.41 11.11 71.55 11.34L71.55 11.34L71.55 11.34Q71.69 11.58 72.02 11.58L72.02 11.58L72.02 11.58Q72.24 11.58 72.44 11.54L72.44 11.54L72.44 12.58L72.44 12.58Q72.27 12.62 72.13 12.65L72.13 12.65L72.13 12.65Q72.00 12.69 71.86 12.71L71.86 12.71L71.86 12.71Q71.72 12.73 71.57 12.74L71.57 12.74L71.57 12.74Q71.42 12.76 71.21 12.76L71.21 12.76L71.21 12.76Q70.49 12.76 70.14 12.40L70.14 12.40L70.14 12.40Q69.79 12.04 69.73 11.35L69.73 11.35L69.69 11.35L69.69 11.35Q68.88 12.81 67.25 12.81ZM69.49 9.63L69.49 9.25L68.50 9.26L68.50 9.26Q67.83 9.29 67.55 9.41L67.55 9.41L67.55 9.41Q67.27 9.53 67.13 9.78L67.13 9.78L67.13 9.78Q66.98 10.02 66.98 10.43L66.98 10.43L66.98 10.43Q66.98 10.96 67.22 11.21L67.22 11.21L67.22 11.21Q67.46 11.47 67.87 11.47L67.87 11.47L67.87 11.47Q68.32 11.47 68.69 11.22L68.69 11.22L68.69 11.22Q69.06 10.98 69.28 10.54L69.28 10.54L69.28 10.54Q69.49 10.11 69.49 9.63L69.49 9.63ZM80.04 12.67L78.12 12.67L78.12 8.52L78.12 8.52Q78.12 6.58 76.80 6.58L76.80 6.58L76.80 6.58Q76.10 6.58 75.68 7.17L75.68 7.17L75.68 7.17Q75.25 7.77 75.25 8.71L75.25 8.71L75.25 12.67L73.33 12.67L73.33 6.93L73.33 6.93Q73.33 6.34 73.31 5.96L73.31 5.96L73.31 5.96Q73.29 5.58 73.27 5.28L73.27 5.28L75.11 5.28L75.11 5.28Q75.13 5.41 75.16 5.97L75.16 5.97L75.16 5.97Q75.20 6.54 75.20 6.75L75.20 6.75L75.22 6.75L75.22 6.75Q75.61 5.90 76.20 5.52L76.20 5.52L76.20 5.52Q76.79 5.13 77.60 5.13L77.60 5.13L77.60 5.13Q78.78 5.13 79.41 5.86L79.41 5.86L79.41 5.86Q80.04 6.58 80.04 7.98L80.04 7.98L80.04 12.67ZM84.98 15.64L84.98 15.64L84.98 15.64Q83.62 15.64 82.80 15.12L82.80 15.12L82.80 15.12Q81.98 14.61 81.79 13.65L81.79 13.65L83.71 13.43L83.71 13.43Q83.81 13.87 84.15 14.12L84.15 14.12L84.15 14.12Q84.49 14.38 85.03 14.38L85.03 14.38L85.03 14.38Q85.83 14.38 86.20 13.88L86.20 13.88L86.20 13.88Q86.57 13.39 86.57 12.42L86.57 12.42L86.57 12.03L86.58 11.30L86.57 11.30L86.57 11.30Q85.93 12.66 84.19 12.66L84.19 12.66L84.19 12.66Q82.90 12.66 82.19 11.69L82.19 11.69L82.19 11.69Q81.48 10.72 81.48 8.91L81.48 8.91L81.48 8.91Q81.48 7.10 82.21 6.12L82.21 6.12L82.21 6.12Q82.94 5.13 84.33 5.13L84.33 5.13L84.33 5.13Q85.95 5.13 86.57 6.47L86.57 6.47L86.60 6.47L86.60 6.47Q86.60 6.23 86.64 5.82L86.64 5.82L86.64 5.82Q86.67 5.41 86.70 5.28L86.70 5.28L88.52 5.28L88.52 5.28Q88.48 6.02 88.48 6.99L88.48 6.99L88.48 12.45L88.48 12.45Q88.48 14.03 87.58 14.83L87.58 14.83L87.58 14.83Q86.69 15.64 84.98 15.64ZM86.58 8.87L86.58 8.87L86.58 8.87Q86.58 7.73 86.18 7.09L86.18 7.09L86.18 7.09Q85.77 6.45 85.02 6.45L85.02 6.45L85.02 6.45Q83.48 6.45 83.48 8.91L83.48 8.91L83.48 8.91Q83.48 11.33 85.00 11.33L85.00 11.33L85.00 11.33Q85.77 11.33 86.18 10.69L86.18 10.69L86.18 10.69Q86.58 10.05 86.58 8.87Z"></path></g><!----><g data-v-423bf9ae="" id="cb7d76c8-1ad2-4b3f-9283-1dd8c5bcd81c" transform="matrix(1.0868111504448785,0,0,1.0868111504448785,155.74473429518693,-0.23894260335429607)" stroke="none" fill="black"><g clip-rule="evenodd"><path d="M12.983 10.59l17.018 88.223-5.872-59.049 29.021-1.892-.054-9.883L64.549 1 53.622 18.977z"></path><path d="M59.389 54.548l5.16-53.541-8.74 39.716-19.612 1.045 1.57 20.462-7.766 36.583 12.057-39.899z"></path><path d="M62.8 67.182l.549-10.453-15.979 3.755-.032 11.797-17.337 26.532 21.68-27.616zM65.711 62.394l14.841-4.731 1.509-12.532-15.899 2.095zM72.07 44.502l10.988-1.417 1.581-10.278-8.079-.373L64.549 1l8.43 30.967z"></path><path d="M87.413 31.294l1.256-9.506-9.544-2.694L64.549 1l14.483 22.437-.422 7z"></path></g></g><!----></svg>